<?xml version="1.0" encoding="UTF-8" standalone="no"?>
<svg
   viewBox="0 0 24 24"
   version="1.1"
   id="svg1"
   sodipodi:docname="television-classic.svg"
   inkscape:export-filename="512px.png"
   inkscape:export-xdpi="2048"
   inkscape:export-ydpi="2048"
   inkscape:version="1.4.3 (fcd0343856, 2026-01-01)"
   xmlns:inkscape="http://www.inkscape.org/namespaces/inkscape"
   xmlns:sodipodi="http://sodipodi.sourceforge.net/DTD/sodipodi-0.dtd"
   xmlns="http://www.w3.org/2000/svg"
   xmlns:svg="http://www.w3.org/2000/svg">
  <defs
     id="defs1" />
  <sodipodi:namedview
     id="namedview1"
     pagecolor="#ffffff"
     bordercolor="#000000"
     borderopacity="0.25"
     inkscape:showpageshadow="2"
     inkscape:pageopacity="0.0"
     inkscape:pagecheckerboard="0"
     inkscape:deskcolor="#d1d1d1"
     inkscape:zoom="48.458333"
     inkscape:cx="11.989682"
     inkscape:cy="12"
     inkscape:window-width="5054"
     inkscape:window-height="1371"
     inkscape:window-x="0"
     inkscape:window-y="0"
     inkscape:window-maximized="1"
     inkscape:current-layer="svg1" />
  <path
     d="M8.16,3L6.75,4.41L9.34,7H4C2.89,7 2,7.89 2,9V19C2,20.11 2.89,21 4,21H20C21.11,21 22,20.11 22,19V9C22,7.89 21.11,7 20,7H14.66L17.25,4.41L15.84,3L12,6.84L8.16,3M4,9H17V19H4V9M19.5,9A1,1 0 0,1 20.5,10A1,1 0 0,1 19.5,11A1,1 0 0,1 18.5,10A1,1 0 0,1 19.5,9M19.5,12A1,1 0 0,1 20.5,13A1,1 0 0,1 19.5,14A1,1 0 0,1 18.5,13A1,1 0 0,1 19.5,12Z"
     id="path1"
     style="fill:#0055d4" />
</svg>
